<svg version="1.1" id="Layer_1" xmlns="http://www.w3.org/2000/svg" xmlns:xlink="http://www.w3.org/1999/xlink" x="0px" y="0px"
	 viewBox="0 0 512 512" style="enable-background:new 0 0 512 512;" xml:space="preserve">
<path style="fill:#EDEDED;" d="M467.478,489.739H66.782c-24.588,0-44.522-19.934-44.522-44.522V44.521
	c0-12.295,9.966-22.261,22.261-22.261h422.957c12.295,0,22.261,9.966,22.261,22.261v422.957
	C489.739,479.773,479.773,489.739,467.478,489.739z"/>
<path style="fill:#777777;" d="M509.554,487.293l-22.261,22.261c-1.631,1.629-3.768,2.445-5.904,2.445s-4.273-0.815-5.904-2.445
	c-3.26-3.26-3.26-8.546,0-11.805l8.011-8.011H52.869c-16.877,0-30.609-13.731-30.609-30.609V28.5l-8.009,8.011
	c-3.261,3.26-8.546,3.26-11.806,0s-3.26-8.546,0-11.805L24.706,2.445c3.261-3.26,8.546-3.26,11.806,0l22.261,22.261
	c3.26,3.26,3.26,8.546,0,11.805c-1.631,1.629-3.768,2.445-5.904,2.445s-4.273-0.815-5.904-2.445L38.956,28.5v430.63
	c0,7.672,6.241,13.913,13.913,13.913h430.629l-8.011-8.011c-3.26-3.26-3.26-8.546,0-11.805c3.261-3.26,8.546-3.26,11.806,0
	l22.261,22.261C512.814,478.748,512.814,484.034,509.554,487.293z"/>
<path style="fill:#FF6029;" d="M100.174,77.913h389.565c12.295,0,22.261,9.966,22.261,22.261v44.522
	c0,12.295-9.966,22.261-22.261,22.261H100.174c-12.295,0-22.261-9.966-22.261-22.261v-44.522
	C77.913,87.879,87.879,77.913,100.174,77.913z"/>
<path style="fill:#73A4BC;" d="M100.174,345.043h256c12.295,0,22.261,9.966,22.261,22.261v44.522
	c0,12.295-9.966,22.261-22.261,22.261h-256c-12.295,0-22.261-9.966-22.261-22.261v-44.522
	C77.913,355.009,87.879,345.043,100.174,345.043z"/>
<path style="fill:#FFBC00;" d="M77.913,278.261v-44.522c0-12.295,9.966-22.261,22.261-22.261h133.565
	c12.295,0,22.261,9.966,22.261,22.261v44.522c0,12.295-9.966,22.261-22.261,22.261H100.174
	C87.879,300.521,77.913,290.555,77.913,278.261z"/>
</svg>
