<svg version="1.1" id="Layer_1" xmlns="http://www.w3.org/2000/svg" xmlns:xlink="http://www.w3.org/1999/xlink" x="0px" y="0px"
	 viewBox="0 0 512 512" style="enable-background:new 0 0 512 512;" xml:space="preserve">
<path style="fill:#EDEDED;" d="M467.478,489.739H66.783c-24.588,0-44.522-19.934-44.522-44.522V44.522
	c0-12.295,9.966-22.261,22.261-22.261h422.957c12.295,0,22.261,9.966,22.261,22.261v422.957
	C489.739,479.773,479.773,489.739,467.478,489.739z"/>
<path style="fill:#FF8655;" d="M144.696,434.087h-44.522c-12.295,0-22.261-9.966-22.261-22.261V22.261
	C77.913,9.966,87.879,0,100.174,0h44.522c12.295,0,22.261,9.966,22.261,22.261v389.565
	C166.957,424.121,156.99,434.087,144.696,434.087z"/>
<path style="fill:#FF6029;" d="M278.261,434.087h-44.522c-12.295,0-22.261-9.966-22.261-22.261v-256
	c0-12.295,9.966-22.261,22.261-22.261h44.522c12.295,0,22.261,9.966,22.261,22.261v256
	C300.522,424.121,290.556,434.087,278.261,434.087z"/>
<path style="fill:#B7441C;" d="M345.043,411.826V278.261c0-12.295,9.966-22.261,22.261-22.261h44.522
	c12.295,0,22.261,9.966,22.261,22.261v133.565c0,12.295-9.966,22.261-22.261,22.261h-44.522
	C355.01,434.087,345.043,424.121,345.043,411.826z"/>
<path style="fill:#777777;" d="M509.555,487.294l-22.261,22.261c-1.631,1.629-3.768,2.445-5.904,2.445s-4.273-0.815-5.904-2.445
	c-3.26-3.26-3.26-8.546,0-11.805l8.011-8.011H52.87c-16.877,0-30.609-13.731-30.609-30.609V28.501l-8.009,8.011
	c-3.261,3.26-8.546,3.26-11.806,0s-3.26-8.546,0-11.805L24.706,2.445c3.261-3.26,8.546-3.26,11.806,0l22.261,22.261
	c3.26,3.26,3.26,8.546,0,11.805c-1.631,1.629-3.768,2.445-5.904,2.445s-4.273-0.815-5.904-2.445l-8.009-8.011v430.63
	c0,7.672,6.241,13.913,13.913,13.913h430.629l-8.011-8.011c-3.26-3.26-3.26-8.546,0-11.805c3.261-3.26,8.546-3.26,11.806,0
	l22.261,22.261C512.815,478.748,512.815,484.035,509.555,487.294z"/>
</svg>
